<svg width="50" height="50" viewBox="0 0 50 50" fill="none" xmlns="http://www.w3.org/2000/svg">
<circle cx="25" cy="25" r="21.5" stroke="white" stroke-width="5" stroke-linecap="round" stroke-dasharray="6.5 6.5"/>
<path d="M22.4725 13.685C21.8753 15.1182 20.2007 15.7657 18.791 15.115C16.4585 14.0385 14.0385 16.4585 15.115 18.791C15.7657 20.2007 15.1182 21.8753 13.685 22.4725C11.4383 23.4086 11.4383 26.5914 13.685 27.5275C15.1182 28.1247 15.7657 29.7993 15.115 31.2089C14.0385 33.5415 16.4585 35.9615 18.791 34.8849C20.2007 34.2343 21.8753 34.8817 22.4725 36.3149C23.4086 38.5617 26.5914 38.5617 27.5275 36.3149C28.1247 34.8817 29.7993 34.2343 31.2089 34.8849C33.5415 35.9615 35.9615 33.5415 34.8849 31.2089C34.2343 29.7993 34.8817 28.1247 36.3149 27.5275C38.5617 26.5914 38.5617 23.4086 36.3149 22.4725C34.8817 21.8753 34.2343 20.2007 34.8849 18.791C35.9615 16.4585 33.5415 14.0385 31.2089 15.115C29.7993 15.7657 28.1247 15.1182 27.5275 13.685C26.5914 11.4383 23.4086 11.4383 22.4725 13.685Z" stroke="white" stroke-width="5" stroke-linecap="round" stroke-linejoin="round"/>
<path d="M29 25C29 27.2092 27.2092 29 25 29C22.7908 29 21 27.2092 21 25C21 22.7908 22.7908 21 25 21C27.2092 21 29 22.7908 29 25Z" stroke="white" stroke-width="5"/>
<circle cx="25" cy="25" r="21.5" stroke="#000025" stroke-width="3" stroke-linecap="round" stroke-dasharray="6.5 6.5"/>
<path d="M22.4725 13.685C21.8753 15.1182 20.2007 15.7657 18.791 15.115C16.4585 14.0385 14.0385 16.4585 15.115 18.791C15.7657 20.2007 15.1182 21.8753 13.685 22.4725C11.4383 23.4086 11.4383 26.5914 13.685 27.5275C15.1182 28.1247 15.7657 29.7993 15.115 31.2089C14.0385 33.5415 16.4585 35.9615 18.791 34.8849C20.2007 34.2343 21.8753 34.8817 22.4725 36.3149C23.4086 38.5617 26.5914 38.5617 27.5275 36.3149C28.1247 34.8817 29.7993 34.2343 31.2089 34.8849C33.5415 35.9615 35.9615 33.5415 34.8849 31.2089C34.2343 29.7993 34.8817 28.1247 36.3149 27.5275C38.5617 26.5914 38.5617 23.4086 36.3149 22.4725C34.8817 21.8753 34.2343 20.2007 34.8849 18.791C35.9615 16.4585 33.5415 14.0385 31.2089 15.115C29.7993 15.7657 28.1247 15.1182 27.5275 13.685C26.5914 11.4383 23.4086 11.4383 22.4725 13.685Z" stroke="#000025" stroke-width="3" stroke-linecap="round" stroke-linejoin="round"/>
<path d="M29 25C29 27.2092 27.2092 29 25 29C22.7908 29 21 27.2092 21 25C21 22.7908 22.7908 21 25 21C27.2092 21 29 22.7908 29 25Z" stroke="#000025" stroke-width="3"/>
</svg>
