<svg width="50" height="50" viewBox="0 0 50 50" fill="none" xmlns="http://www.w3.org/2000/svg">
<path d="M24.9999 35.8539C19.0151 35.8539 14.1461 30.9849 14.1461 25.0001C14.1461 19.0153 19.0151 14.1464 24.9999 14.1464C30.9848 14.1464 35.8537 19.0153 35.8537 25.0001C35.8537 30.9849 30.9848 35.8539 24.9999 35.8539Z" stroke="white" stroke-width="5" stroke-miterlimit="10"/>
<path d="M20.7078 24.9499L23.6332 27.8752L29.3836 22.1249" stroke="white" stroke-width="5" stroke-miterlimit="10" stroke-linecap="round" stroke-linejoin="round"/>
<path d="M46 27.6261V22.374L41.7673 21.1446C41.3321 19.251 40.5827 17.4765 39.5785 15.8773L41.7061 12.0077L37.9923 8.29388L34.1227 10.4215C32.5236 9.41725 30.749 8.66787 28.8554 8.23271L27.626 4.00002H22.3739L21.1445 8.23271C19.2509 8.66787 17.4762 9.41725 15.8772 10.4215L12.0075 8.29388L8.29374 12.0077L10.4214 15.8773C9.41711 17.4765 8.66773 19.251 8.23257 21.1446L3.99988 22.374V27.6261L8.23257 28.8555C8.66773 30.749 9.41711 32.5237 10.4214 34.1228L8.29374 37.9924L12.0075 41.7062L15.8772 39.5786C17.4762 40.5829 19.2509 41.3322 21.1445 41.7674L22.3739 46.0001H27.626L28.8554 41.7674C30.749 41.3322 32.5236 40.5829 34.1227 39.5786L37.9923 41.7062L41.7061 37.9924L39.5785 34.1228C40.5827 32.5237 41.3321 30.749 41.7673 28.8555L46 27.6261Z" stroke="white" stroke-width="5" stroke-miterlimit="10" stroke-linecap="round" stroke-linejoin="round"/>
<path d="M24.9999 35.8539C19.0151 35.8539 14.1461 30.9849 14.1461 25.0001C14.1461 19.0153 19.0151 14.1464 24.9999 14.1464C30.9848 14.1464 35.8537 19.0153 35.8537 25.0001C35.8537 30.9849 30.9848 35.8539 24.9999 35.8539Z" stroke="#000025" stroke-width="3" stroke-miterlimit="10"/>
<path d="M20.7078 24.9499L23.6332 27.8752L29.3836 22.1249" stroke="#000025" stroke-width="3" stroke-miterlimit="10" stroke-linecap="round" stroke-linejoin="round"/>
<path d="M46 27.6261V22.374L41.7673 21.1446C41.3321 19.251 40.5827 17.4765 39.5785 15.8773L41.7061 12.0077L37.9923 8.29388L34.1227 10.4215C32.5236 9.41725 30.749 8.66787 28.8554 8.23271L27.626 4.00002H22.3739L21.1445 8.23271C19.2509 8.66787 17.4762 9.41725 15.8772 10.4215L12.0075 8.29388L8.29374 12.0077L10.4214 15.8773C9.41711 17.4765 8.66773 19.251 8.23257 21.1446L3.99988 22.374V27.6261L8.23257 28.8555C8.66773 30.749 9.41711 32.5237 10.4214 34.1228L8.29374 37.9924L12.0075 41.7062L15.8772 39.5786C17.4762 40.5829 19.2509 41.3322 21.1445 41.7674L22.3739 46.0001H27.626L28.8554 41.7674C30.749 41.3322 32.5236 40.5829 34.1227 39.5786L37.9923 41.7062L41.7061 37.9924L39.5785 34.1228C40.5827 32.5237 41.3321 30.749 41.7673 28.8555L46 27.6261Z" stroke="#000025" stroke-width="3" stroke-miterlimit="10" stroke-linecap="round" stroke-linejoin="round"/>
</svg>
