<svg width="50" height="50" viewBox="0 0 50 50" fill="none" xmlns="http://www.w3.org/2000/svg">
<path d="M15.8288 22.6981L8.77515 25.2646C8.86576 26.3954 9.06027 27.5124 9.33435 28.607L16.0341 26.167C15.8194 25.0362 15.7425 23.8681 15.8304 22.6979M46.9998 14.8985C46.5079 13.8838 45.9389 12.9031 45.2797 11.9789L38.2281 14.5453C39.0488 15.3848 39.7371 16.3282 40.3004 17.3372L47 14.8981L46.9998 14.8985Z" stroke="white" stroke-width="5" stroke-linecap="round" stroke-linejoin="round"/>
<path d="M34.4879 14.857C33.6007 14.0872 32.5987 13.4227 31.4834 12.9025H31.4829C24.9349 9.84969 17.1216 12.6899 14.0688 19.2405C13.8985 19.6062 13.7457 19.9799 13.6109 20.3601C13.2298 21.4686 13.0071 22.6021 12.922 23.7336L12.8972 23.7429L12.8953 23.7678L8.6502 25.3125L5.91874 26.322L5.91753 26.3068L5.84263 26.334C5.57753 22.9797 6.14294 19.5145 7.664 16.2527C7.86169 15.8287 8.07393 15.4115 8.30035 15.0021C13.3149 5.66207 24.725 1.75802 34.3477 6.31551C36.2906 7.23512 38.0717 8.46345 39.6216 9.95273C40.6331 10.8889 41.5457 11.9264 42.3452 13.049L35.2935 15.6162C35.2572 15.5791 35.2207 15.5422 35.1839 15.5056L35.1644 15.5126C34.9466 15.2864 34.721 15.0678 34.488 14.8571" stroke="white" stroke-width="5" stroke-linecap="round" stroke-linejoin="round"/>
<path d="M6.23634 37.7142L6.2253 37.7184C4.76133 35.6563 3.69283 33.3404 3.0741 30.8883L9.77501 28.4479L9.77536 28.4484L9.7795 28.47L9.823 28.4539L9.82403 28.4565C10.1682 30.2791 10.8846 32.018 11.9293 33.547C12.3295 34.1185 12.7752 34.6568 13.2621 35.1566L13.2355 35.1664L13.2862 35.2196L6.2983 37.8033C6.27759 37.7738 6.25694 37.7441 6.23634 37.7142Z" stroke="white" stroke-width="5" stroke-linecap="round" stroke-linejoin="round"/>
<path d="M32.8508 35.9108C29.2176 38.1575 24.5572 38.5915 20.4047 36.6551C18.9783 35.9913 17.6848 35.0733 16.5872 33.9462L9.55029 36.5082L9.60431 36.5836L9.60086 36.585C11.5356 39.3492 14.1749 41.6599 17.4135 43.1949C24.3983 46.5023 32.3232 45.3525 38.0614 40.9022C40.631 38.9775 42.7761 36.412 44.2252 33.3047C45.7473 30.0435 46.3095 26.5798 46.0401 23.228L45.844 23.2995C45.8415 23.2636 45.8387 23.2277 45.8359 23.1918L38.8476 25.7732L38.8479 25.7739C38.7336 27.3544 38.3357 28.9013 37.6733 30.3407C36.5833 32.7144 34.8835 34.6052 32.851 35.9108" stroke="white" stroke-width="5" stroke-linecap="round" stroke-linejoin="round"/>
<path d="M40.6326 17.2161L40.7373 17.1778C41.8424 19.4531 42.5129 21.9145 42.7142 24.436L35.6771 26.9962L35.6809 26.9438L35.548 26.9929C35.7395 24.3889 35.1553 21.7991 33.9196 19.5502L40.5727 17.0908L40.573 17.0901C40.593 17.132 40.6129 17.174 40.6326 17.2161Z" stroke="white" stroke-width="5" stroke-linecap="round" stroke-linejoin="round"/>
<path d="M15.8288 22.6981L8.77515 25.2646C8.86576 26.3954 9.06027 27.5124 9.33435 28.607L16.0341 26.167C15.8194 25.0362 15.7425 23.8681 15.8304 22.6979M46.9998 14.8985C46.5079 13.8838 45.9389 12.9031 45.2797 11.9789L38.2281 14.5453C39.0488 15.3848 39.7371 16.3282 40.3004 17.3372L47 14.8981L46.9998 14.8985Z" stroke="#000025" stroke-width="3" stroke-linecap="round" stroke-linejoin="round"/>
<path d="M34.4879 14.857C33.6007 14.0872 32.5987 13.4227 31.4834 12.9025H31.4829C24.9349 9.84969 17.1216 12.6899 14.0688 19.2405C13.8985 19.6062 13.7457 19.9799 13.6109 20.3601C13.2298 21.4686 13.0071 22.6021 12.922 23.7336L12.8972 23.7429L12.8953 23.7678L8.6502 25.3125L5.91874 26.322L5.91753 26.3068L5.84263 26.334C5.57753 22.9797 6.14294 19.5145 7.664 16.2527C7.86169 15.8287 8.07393 15.4115 8.30035 15.0021C13.3149 5.66207 24.725 1.75802 34.3477 6.31551C36.2906 7.23512 38.0717 8.46345 39.6216 9.95273C40.6331 10.8889 41.5457 11.9264 42.3452 13.049L35.2935 15.6162C35.2572 15.5791 35.2207 15.5422 35.1839 15.5056L35.1644 15.5126C34.9466 15.2864 34.721 15.0678 34.488 14.8571" stroke="#000025" stroke-width="3" stroke-linecap="round" stroke-linejoin="round"/>
<path d="M6.23634 37.7142L6.2253 37.7184C4.76133 35.6563 3.69283 33.3404 3.0741 30.8883L9.77501 28.4479L9.77536 28.4484L9.7795 28.47L9.823 28.4539L9.82403 28.4565C10.1682 30.2791 10.8846 32.018 11.9293 33.547C12.3295 34.1185 12.7752 34.6568 13.2621 35.1566L13.2355 35.1664L13.2862 35.2196L6.2983 37.8033C6.27759 37.7738 6.25694 37.7441 6.23634 37.7142Z" stroke="#000025" stroke-width="3" stroke-linecap="round" stroke-linejoin="round"/>
<path d="M32.8508 35.9108C29.2176 38.1575 24.5572 38.5915 20.4047 36.6551C18.9783 35.9913 17.6848 35.0733 16.5872 33.9462L9.55029 36.5082L9.60431 36.5836L9.60086 36.585C11.5356 39.3492 14.1749 41.6599 17.4135 43.1949C24.3983 46.5023 32.3232 45.3525 38.0614 40.9022C40.631 38.9775 42.7761 36.412 44.2252 33.3047C45.7473 30.0435 46.3095 26.5798 46.0401 23.228L45.844 23.2995C45.8415 23.2636 45.8387 23.2277 45.8359 23.1918L38.8476 25.7732L38.8479 25.7739C38.7336 27.3544 38.3357 28.9013 37.6733 30.3407C36.5833 32.7144 34.8835 34.6052 32.851 35.9108" stroke="#000025" stroke-width="3" stroke-linecap="round" stroke-linejoin="round"/>
<path d="M40.6326 17.2161L40.7373 17.1778C41.8424 19.4531 42.5129 21.9145 42.7142 24.436L35.6771 26.9962L35.6809 26.9438L35.548 26.9929C35.7395 24.3889 35.1553 21.7991 33.9196 19.5502L40.5727 17.0908L40.573 17.0901C40.593 17.132 40.6129 17.174 40.6326 17.2161Z" stroke="#000025" stroke-width="3" stroke-linecap="round" stroke-linejoin="round"/>
</svg>
