<svg width="50" height="50" viewBox="0 0 50 50" fill="none" xmlns="http://www.w3.org/2000/svg">
<path d="M22.6613 42.2166L11.6539 36.7129" stroke="white" stroke-width="5" stroke-miterlimit="10"/>
<path d="M9.31525 32.9294V17.0705" stroke="white" stroke-width="5" stroke-miterlimit="10"/>
<path d="M11.6539 13.2871L22.6613 7.78344" stroke="white" stroke-width="5" stroke-miterlimit="10"/>
<path d="M27.3386 7.78344L38.346 13.2871" stroke="white" stroke-width="5" stroke-miterlimit="10"/>
<path d="M38.346 36.713L27.3386 42.2167" stroke="white" stroke-width="5" stroke-miterlimit="10"/>
<path d="M24.9999 24.9128V40.7717" stroke="white" stroke-width="5" stroke-miterlimit="10"/>
<path d="M27.3387 21.1293L38.346 15.6256" stroke="white" stroke-width="5" stroke-miterlimit="10"/>
<path d="M40.6847 17.0704V32.9293" stroke="white" stroke-width="5" stroke-miterlimit="10"/>
<path d="M11.654 15.6256L22.6613 21.1293" stroke="white" stroke-width="5" stroke-miterlimit="10"/>
<path d="M27.614 6.61403C27.614 8.05772 26.4436 9.22815 24.9999 9.22815C23.5562 9.22815 22.3858 8.05772 22.3858 6.61403C22.3858 5.17035 23.5562 3.99992 24.9999 3.99992C26.4436 3.99992 27.614 5.17035 27.614 6.61403Z" stroke="white" stroke-width="5" stroke-miterlimit="10"/>
<path d="M27.614 22.2987C27.614 23.7424 26.4436 24.9128 24.9999 24.9128C23.5562 24.9128 22.3858 23.7424 22.3858 22.2987C22.3858 20.855 23.5562 19.6846 24.9999 19.6846C26.4436 19.6846 27.614 20.855 27.614 22.2987Z" stroke="white" stroke-width="5" stroke-miterlimit="10"/>
<path d="M43.2987 14.4564C43.2987 15.9001 42.1283 17.0706 40.6846 17.0706C39.2409 17.0706 38.0705 15.9001 38.0705 14.4564C38.0705 13.0128 39.2409 11.8423 40.6846 11.8423C42.1283 11.8423 43.2987 13.0128 43.2987 14.4564Z" stroke="white" stroke-width="5" stroke-miterlimit="10"/>
<path d="M11.9293 14.4564C11.9293 15.9001 10.7589 17.0706 9.31523 17.0706C7.87154 17.0706 6.70111 15.9001 6.70111 14.4564C6.70111 13.0128 7.87154 11.8423 9.31523 11.8423C10.7589 11.8423 11.9293 13.0128 11.9293 14.4564Z" stroke="white" stroke-width="5" stroke-miterlimit="10"/>
<path d="M11.9293 35.5436C11.9293 36.9873 10.7589 38.1577 9.31523 38.1577C7.87154 38.1577 6.70111 36.9873 6.70111 35.5436C6.70111 34.0999 7.87154 32.9295 9.31523 32.9295C10.7589 32.9295 11.9293 34.0999 11.9293 35.5436Z" stroke="white" stroke-width="5" stroke-miterlimit="10"/>
<path d="M27.614 43.386C27.614 44.8297 26.4436 46.0001 24.9999 46.0001C23.5562 46.0001 22.3858 44.8297 22.3858 43.386C22.3858 41.9423 23.5562 40.7719 24.9999 40.7719C26.4436 40.7719 27.614 41.9423 27.614 43.386Z" stroke="white" stroke-width="5" stroke-miterlimit="10"/>
<path d="M43.2987 35.5436C43.2987 36.9873 42.1283 38.1577 40.6846 38.1577C39.2409 38.1577 38.0705 36.9873 38.0705 35.5436C38.0705 34.0999 39.2409 32.9295 40.6846 32.9295C42.1283 32.9295 43.2987 34.0999 43.2987 35.5436Z" stroke="white" stroke-width="5" stroke-miterlimit="10"/>
<path d="M22.6613 42.2166L11.6539 36.7129" stroke="#000025" stroke-width="3" stroke-miterlimit="10"/>
<path d="M9.31525 32.9294V17.0705" stroke="#000025" stroke-width="3" stroke-miterlimit="10"/>
<path d="M11.6539 13.2871L22.6613 7.78344" stroke="#000025" stroke-width="3" stroke-miterlimit="10"/>
<path d="M27.3386 7.78344L38.346 13.2871" stroke="#000025" stroke-width="3" stroke-miterlimit="10"/>
<path d="M38.346 36.713L27.3386 42.2167" stroke="#000025" stroke-width="3" stroke-miterlimit="10"/>
<path d="M24.9999 24.9128V40.7717" stroke="#000025" stroke-width="3" stroke-miterlimit="10"/>
<path d="M27.3387 21.1293L38.346 15.6256" stroke="#000025" stroke-width="3" stroke-miterlimit="10"/>
<path d="M40.6847 17.0704V32.9293" stroke="#000025" stroke-width="3" stroke-miterlimit="10"/>
<path d="M11.654 15.6256L22.6613 21.1293" stroke="#000025" stroke-width="3" stroke-miterlimit="10"/>
<path d="M27.614 6.61403C27.614 8.05772 26.4436 9.22815 24.9999 9.22815C23.5562 9.22815 22.3858 8.05772 22.3858 6.61403C22.3858 5.17035 23.5562 3.99992 24.9999 3.99992C26.4436 3.99992 27.614 5.17035 27.614 6.61403Z" stroke="#000025" stroke-width="3" stroke-miterlimit="10"/>
<path d="M27.614 22.2987C27.614 23.7424 26.4436 24.9128 24.9999 24.9128C23.5562 24.9128 22.3858 23.7424 22.3858 22.2987C22.3858 20.855 23.5562 19.6846 24.9999 19.6846C26.4436 19.6846 27.614 20.855 27.614 22.2987Z" stroke="#000025" stroke-width="3" stroke-miterlimit="10"/>
<path d="M43.2987 14.4564C43.2987 15.9001 42.1283 17.0706 40.6846 17.0706C39.2409 17.0706 38.0705 15.9001 38.0705 14.4564C38.0705 13.0128 39.2409 11.8423 40.6846 11.8423C42.1283 11.8423 43.2987 13.0128 43.2987 14.4564Z" stroke="#000025" stroke-width="3" stroke-miterlimit="10"/>
<path d="M11.9293 14.4564C11.9293 15.9001 10.7589 17.0706 9.31523 17.0706C7.87154 17.0706 6.70111 15.9001 6.70111 14.4564C6.70111 13.0128 7.87154 11.8423 9.31523 11.8423C10.7589 11.8423 11.9293 13.0128 11.9293 14.4564Z" stroke="#000025" stroke-width="3" stroke-miterlimit="10"/>
<path d="M11.9293 35.5436C11.9293 36.9873 10.7589 38.1577 9.31523 38.1577C7.87154 38.1577 6.70111 36.9873 6.70111 35.5436C6.70111 34.0999 7.87154 32.9295 9.31523 32.9295C10.7589 32.9295 11.9293 34.0999 11.9293 35.5436Z" stroke="#000025" stroke-width="3" stroke-miterlimit="10"/>
<path d="M27.614 43.386C27.614 44.8297 26.4436 46.0001 24.9999 46.0001C23.5562 46.0001 22.3858 44.8297 22.3858 43.386C22.3858 41.9423 23.5562 40.7719 24.9999 40.7719C26.4436 40.7719 27.614 41.9423 27.614 43.386Z" stroke="#000025" stroke-width="3" stroke-miterlimit="10"/>
<path d="M43.2987 35.5436C43.2987 36.9873 42.1283 38.1577 40.6846 38.1577C39.2409 38.1577 38.0705 36.9873 38.0705 35.5436C38.0705 34.0999 39.2409 32.9295 40.6846 32.9295C42.1283 32.9295 43.2987 34.0999 43.2987 35.5436Z" stroke="#000025" stroke-width="3" stroke-miterlimit="10"/>
</svg>
