<svg width="50" height="50" viewBox="0 0 50 50" fill="none" xmlns="http://www.w3.org/2000/svg">
<path d="M46.9764 25.2601C47.1569 22.3935 46.2971 19.5604 44.5666 17.3194C42.8362 15.0783 40.3603 13.5918 37.6272 13.1528C36.5802 10.1071 34.536 7.541 31.8521 5.90216C29.1682 4.26335 26.0153 3.65604 22.9442 4.18729C19.8732 4.71852 17.0797 6.35448 15.0518 8.80838C13.024 11.2623 11.8908 14.3785 11.8504 17.6122C9.50313 17.6122 7.25201 18.5805 5.59222 20.3046C3.93244 22.0289 3 24.3679 3 26.8061C3 29.2445 3.93244 31.583 5.59222 33.3071C7.25201 35.0314 9.50313 36 11.8504 36H24.0197" stroke="white" stroke-width="5" stroke-linecap="round" stroke-linejoin="round"/>
<path d="M46.9764 25.2601C47.1569 22.3935 46.2971 19.5604 44.5666 17.3194C42.8362 15.0783 40.3603 13.5918 37.6272 13.1528C36.5802 10.1071 34.536 7.541 31.8521 5.90216C29.1682 4.26335 26.0153 3.65604 22.9442 4.18729C19.8732 4.71852 17.0797 6.35448 15.0518 8.80838C13.024 11.2623 11.8908 14.3785 11.8504 17.6122C9.50313 17.6122 7.25201 18.5805 5.59222 20.3046C3.93244 22.0289 3 24.3679 3 26.8061C3 29.2445 3.93244 31.583 5.59222 33.3071C7.25201 35.0314 9.50313 36 11.8504 36H24.0197" stroke="#000025" stroke-width="2.88462" stroke-linecap="round" stroke-linejoin="round"/>
<rect x="28" y="31" width="20" height="7" rx="2" stroke="white" stroke-width="2.5"/>
<rect x="28" y="41" width="20" height="7" rx="2" stroke="white" stroke-width="2.5"/>
<circle cx="32.5" cy="34.5" r="1.5" fill="white"/>
<circle cx="32.5" cy="44.5" r="1.5" fill="white"/>
<path d="M36.8719 34.5176H40.7124" stroke="white" stroke-width="2.5" stroke-linecap="round" stroke-linejoin="round"/>
<path d="M36.8719 44.5176H40.7124" stroke="white" stroke-width="2.5" stroke-linecap="round" stroke-linejoin="round"/>
<rect x="28" y="31" width="20" height="7" rx="2" stroke="#000025" stroke-width="1.5"/>
<rect x="28" y="41" width="20" height="7" rx="2" stroke="#000025" stroke-width="1.5"/>
<circle cx="32.5" cy="34.5" r="0.9" fill="#000025"/>
<circle cx="32.5" cy="44.5" r="0.9" fill="#000025"/>
<path d="M36.8719 34.5176H40.7124" stroke="#000025" stroke-width="1.5" stroke-linecap="round" stroke-linejoin="round"/>
<path d="M36.8719 44.5176H40.7124" stroke="#000025" stroke-width="1.5" stroke-linecap="round" stroke-linejoin="round"/>
<path d="M24.5 48L47.5 29" stroke="white" stroke-width="2.5" stroke-linecap="round"/>
<path d="M24.5 48L47.5 29" stroke="#000025" stroke-width="1.5" stroke-linecap="round"/>
</svg>
